<svg id="圖層_1" data-name="圖層 1" xmlns="http://www.w3.org/2000/svg" viewBox="0 0 900 900"><defs><style>.cls-1{fill:#333;}</style></defs><path class="cls-1" d="M227.26,900a93.55,93.55,0,0,0-6-7.22Q114.68,788.16,8,683.61c-2.69-2.63-5.6-5-8-7.22l68.42-67.62L183,727.63c.29-3.85.6-6,.6-8.19q0-356.66,0-713.31c0-2-.18-4.09-.28-6.13h91.41c-.1,1.75-.28,3.5-.28,5.26q0,357.23,0,714.46c0,2.11.44,4.22.83,7.61L391,607.3c12.13,13,23.46,25.19,35,37.26,9.23,9.67,18.7,19.13,28.06,28.68v3.52a59,59,0,0,0-6,4.69Q341.67,787.65,235.46,894a59.46,59.46,0,0,0-4.69,6Z"/><path class="cls-1" d="M585.35,360.35c-.12-2.92-.35-5.84-.35-8.76q0-170.44,0-340.9V0H900V360.35H810.35V271.18H675v89.17Zm90-181h134V91.37h-134Z"/><path class="cls-1" d="M900,900c-3.78-.23-7.56-.66-11.34-.66q-145.45-.06-290.9,0H585.61c-.24-3.43-.6-6.22-.6-9,0-30.76-.25-61.53.22-92.28a20.29,20.29,0,0,1,5.47-12.71q96-96.65,192.47-192.83c2.22-2.23,4.35-4.55,7.87-8.25H585.35V494H900v109a36.86,36.86,0,0,0-3.39,2.67Q797.87,704.29,699.17,803c-1.35,1.35-2.57,2.84-5,5.57H900Z"/></svg>