<svg id="圖層_1" data-name="圖層 1" xmlns="http://www.w3.org/2000/svg" viewBox="0 0 900 900"><defs><style>.cls-1{fill:#333;}</style></defs><path class="cls-1" d="M226.76,0a91.23,91.23,0,0,0,6,7.22Q339.35,111.85,446,216.39c2.68,2.63,5.6,5,8,7.22l-68.42,67.62L271,172.37c-.29,3.85-.6,6-.6,8.19q0,356.65,0,713.31c0,2,.18,4.09.27,6.13H179.3c.09-1.75.27-3.5.27-5.26q0-357.22,0-714.46c0-2.11-.45-4.22-.83-7.61L63,292.7c-12.14-12.95-23.46-25.19-35-37.26C18.83,245.77,9.36,236.31,0,226.76v-3.52a58.07,58.07,0,0,0,6.05-4.69q106.31-106.2,212.5-212.5a58.07,58.07,0,0,0,4.69-6Z"/><path class="cls-1" d="M585.35,360.35c-.12-2.92-.35-5.84-.35-8.76q0-170.44,0-340.9V0H900V360.35H810.35V271.18H675v89.17Zm90-181h134V91.37h-134Z"/><path class="cls-1" d="M900,900c-3.78-.23-7.56-.66-11.34-.66q-145.45-.06-290.9,0H585.61c-.24-3.43-.6-6.22-.6-9,0-30.76-.25-61.53.22-92.28a20.29,20.29,0,0,1,5.47-12.71q96-96.65,192.47-192.83c2.22-2.23,4.35-4.55,7.87-8.25H585.35V494H900v109a36.86,36.86,0,0,0-3.39,2.67Q797.87,704.29,699.17,803c-1.35,1.35-2.57,2.84-5,5.57H900Z"/></svg>