<svg id="圖層_1" data-name="圖層 1" xmlns="http://www.w3.org/2000/svg" viewBox="0 0 900 900"><defs><style>.cls-1{fill:#229f96;}.cls-2{fill:#f6dd66;}</style></defs><rect class="cls-1" width="900" height="900" rx="150"/><text/><path class="cls-2" d="M419.6,291.19a38,38,0,0,1,2.69-7.21c1-1.87,3.17-3.21,6.59-4l72-16.61a4,4,0,0,0,1.22-.24,4.11,4.11,0,0,1,1.22-.24,4.81,4.81,0,0,1,4.77,2.93,13.51,13.51,0,0,1,1.34,5.61q0,.49-.12,1.95a6.66,6.66,0,0,1-.37,2L407.89,582.45q-3.92,10-6.47,16.23a66.81,66.81,0,0,1-5.13,10.26,27.87,27.87,0,0,1-5.86,6.71,46.23,46.23,0,0,1-8.79,5.37q-5.49,2.68-13.79,6.23t-21,9.64c-2.93,1.46-5.21,2.2-6.84,2.2a6.57,6.57,0,0,1-5.85-2.93,27.2,27.2,0,0,1-3.18-6.59L289.23,480.88,237,588.55q-1.23,2.93-5.62,7.81t-9.89,10q-5.49,5.13-11,9.89c-3.66,3.17-6.64,5.74-8.91,7.69q-3.18,2.68-6.72,5.37a79.34,79.34,0,0,1-7.2,4.88,49.77,49.77,0,0,1-7,3.54,16.41,16.41,0,0,1-6.22,1.35q-6.36,0-8.3-7.08L71.46,298c-.33-1.3-.69-2.6-1.1-3.9a12.24,12.24,0,0,1-.61-3.67,17.37,17.37,0,0,1,2.93-10.25q2.92-4.15,10.25-7.08a90.19,90.19,0,0,1,19.54-4.76q12.19-1.83,31-3.05c5.86-.82,10.78-1.38,14.77-1.71s7.36-.49,10.13-.49c4.72,0,7.82.73,9.28,2.2s2.77,3.9,3.91,7.32l50.29,193.61,41.75-71.78L246.75,321a30,30,0,0,1-1.22-8.79,13.42,13.42,0,0,1,2.93-9q2.92-3.42,9.77-5.62a120.75,120.75,0,0,1,17.94-3.9q11.11-1.71,27.22-3.91,7.08-1,12.21-1.46t8.79-.49q7.32,0,10,2.2t3.91,7.08l33.2,150.39Z"/><path class="cls-2" d="M830.25,368.82a179.28,179.28,0,0,1-4,37.6,123.31,123.31,0,0,1-10.74,29.91,109.19,109.19,0,0,1-16.85,23.92,158.25,158.25,0,0,1-22.58,19.9,182.41,182.41,0,0,1-53.47,26.49,198.06,198.06,0,0,1-58.35,8.91c-3.25,0-6.47-.08-9.64-.24s-6.39-.41-9.64-.73l-8.06,89.11-4.15,7.57q-.5,1-8.3,3.9T604.91,622l-15.38,5.12q-7.34,2.68-12.94,4.89t-10.5,3.9a65.36,65.36,0,0,1-9.52,2.57,53.92,53.92,0,0,1-9.77.85,7.87,7.87,0,0,1-5.37-1.71q-1.95-1.71-1.95-6.59l2.68-41.75q.74-12.45,1.83-25t2.08-28.69l4.64-58.35q1.45-17.82,2.68-35.64t2.45-33.94q1.21-16.11,2.19-30.15T559.74,353q-13.18,2.94-21.12,4.28a79.31,79.31,0,0,1-12.08,1.34q-5.13,0-5.13-4.4,3.42-12,6.35-23.43,2.68-9.76,5.49-20.14T538,293.14a23.06,23.06,0,0,1,2.81-6.71,11.32,11.32,0,0,1,4.15-3.67,33.62,33.62,0,0,1,6.59-2.44q4-1.1,9.89-3.05c3.09-1,7.45-2.07,13.06-3.3s12-2.44,19.29-3.66,15.09-2.4,23.56-3.54,17-2.15,25.76-3,17.29-1.62,25.75-2.2,16.44-.85,23.93-.85a261,261,0,0,1,52.73,5.13q24.9,5.11,43.7,17.45a88.85,88.85,0,0,1,29.91,33.2Q830.25,337.33,830.25,368.82ZM651.78,442.07a11.06,11.06,0,0,0,1,4.76q1,2.07,5.37,2.07a53.78,53.78,0,0,0,16.24-3,79.7,79.7,0,0,0,18.79-9.16,86.28,86.28,0,0,0,17.46-15.13,61,61,0,0,0,12.21-21.24,69.79,69.79,0,0,0,2.81-12.45A126.43,126.43,0,0,0,726.73,370q0-17.09-11.84-25.14T684,336.84q-3.18,0-7.2.37a42.77,42.77,0,0,0-7.57,1.34,27.86,27.86,0,0,0-6,2.32,4.61,4.61,0,0,0-2.69,3.54l-.49,5.37c-.16,2.12-.49,5.58-1,10.38s-1,10.29-1.59,16.48-1.14,12.69-1.71,19.53-1.14,13.34-1.71,19.53-1.06,11.64-1.46,16.36S651.94,440.11,651.78,442.07Z"/></svg>